<svg id="svg" version="1.1" xmlns="http://www.w3.org/2000/svg" xmlns:xlink="http://www.w3.org/1999/xlink" width="400" height="387.1104067617539" viewBox="0, 0, 400,387.1104067617539"><g id="svgg"><path id="path0" d="M192.417 30.019 C 150.633 31.330,118.322 42.670,93.000 64.909 C 67.903 86.951,52.000 123.524,50.471 162.718 C 49.431 189.354,56.022 209.544,76.000 240.917 C 85.995 256.613,89.216 263.769,88.417 268.501 C 88.336 268.979,88.372 269.146,88.572 269.223 C 88.921 269.356,88.930 272.848,88.587 274.750 C 87.484 280.866,84.934 284.732,78.167 290.552 C 71.923 295.921,70.559 297.494,69.557 300.480 C 66.980 308.156,74.759 312.993,89.691 312.998 C 99.167 313.002,108.032 311.038,116.141 307.139 C 117.089 306.683,117.894 306.338,117.930 306.374 C 118.331 306.776,113.536 313.463,111.084 315.922 C 108.098 318.915,107.143 319.542,99.435 323.581 C 89.557 328.757,87.272 330.750,87.038 334.389 C 86.684 339.908,100.154 346.425,114.982 347.910 C 133.099 349.724,153.506 342.154,168.774 327.956 L 169.298 327.469 169.492 328.693 C 173.343 352.994,184.404 365.313,201.053 363.841 C 215.531 362.561,222.364 354.676,228.862 331.750 C 229.694 328.817,230.401 326.387,230.434 326.351 C 230.466 326.314,231.039 326.802,231.705 327.435 C 245.356 340.398,263.610 348.167,280.417 348.167 C 296.924 348.167,314.878 340.605,313.979 334.031 C 313.523 330.697,310.809 328.342,302.417 324.000 C 294.734 320.024,293.470 319.239,290.552 316.624 C 288.247 314.558,282.005 305.724,282.523 305.261 C 282.556 305.232,283.183 305.546,283.917 305.961 C 300.761 315.479,328.924 315.369,332.802 305.770 C 333.167 304.865,333.199 304.590,333.131 302.926 C 332.972 298.999,331.437 296.832,324.728 291.062 C 316.139 283.674,313.482 278.891,313.469 270.790 L 313.464 268.163 314.065 267.498 C 314.396 267.132,314.667 266.678,314.667 266.489 C 314.667 265.914,316.244 261.383,317.244 259.083 C 319.148 254.706,321.458 250.527,328.252 239.167 C 336.060 226.110,340.529 217.955,343.320 211.667 C 350.809 194.797,353.649 181.933,353.660 164.833 C 353.673 145.561,349.645 125.820,342.201 108.684 C 319.026 55.329,266.411 27.696,192.417 30.019 M289.092 135.017 C 294.608 137.081,299.165 140.618,299.166 142.837 C 299.168 145.333,297.413 145.830,293.852 144.343 C 292.389 143.732,290.574 143.249,288.125 142.821 C 286.187 142.481,285.329 142.129,284.644 141.390 C 281.743 138.263,285.061 133.509,289.092 135.017 M114.498 138.893 C 117.007 140.151,117.364 143.664,115.174 145.538 C 114.326 146.264,113.698 146.450,111.402 146.654 C 108.980 146.870,107.346 147.216,104.965 148.014 C 102.754 148.756,102.047 148.688,101.450 147.678 C 100.545 146.147,101.958 144.202,105.840 141.631 C 110.652 138.446,112.465 137.872,114.498 138.893 M146.667 165.520 C 152.042 166.166,157.566 168.194,162.083 171.179 C 163.092 171.845,163.954 172.434,164.000 172.487 C 164.046 172.540,164.732 173.130,165.526 173.796 C 183.568 188.963,181.613 217.793,161.667 230.709 C 141.394 243.837,113.978 233.099,107.946 209.667 C 101.723 185.497,121.863 162.534,146.667 165.520 M259.372 168.484 C 286.031 173.158,296.011 205.941,276.455 224.598 C 258.262 241.955,227.791 232.900,222.001 208.417 C 216.603 185.594,236.387 164.454,259.372 168.484 M183.194 254.209 C 183.530 254.415,184.090 254.921,184.438 255.333 C 187.100 258.485,190.031 259.667,195.190 259.667 C 199.514 259.667,201.808 258.966,207.366 255.946 C 211.310 253.804,211.786 253.643,212.913 254.073 C 216.181 255.321,215.241 261.320,211.101 265.631 C 203.410 273.643,188.905 274.039,181.506 266.438 C 176.554 261.353,176.600 253.880,181.583 253.842 C 182.336 253.837,182.734 253.927,183.194 254.209 " stroke="none" fill="#fb4bdb" fill-rule="evenodd"></path><path id="path1" d="M0.000 193.500 L 0.000 387.000 200.000 387.000 L 400.000 387.000 400.000 193.500 L 400.000 0.000 200.000 0.000 L 0.000 0.000 0.000 193.500 M215.833 30.239 C 255.495 32.963,285.038 43.507,308.995 63.489 C 331.212 82.019,346.854 110.351,351.742 140.917 C 351.888 141.833,352.080 143.033,352.167 143.583 C 353.190 150.012,353.986 161.782,353.755 167.069 C 353.711 168.085,353.632 169.967,353.581 171.250 C 352.808 190.493,346.708 208.182,332.632 232.000 C 331.576 233.787,329.116 237.912,327.165 241.167 C 319.636 253.730,316.650 259.681,315.081 265.250 C 314.633 266.837,314.421 267.333,314.050 267.653 L 313.583 268.056 313.593 270.903 C 313.623 279.193,316.166 283.599,325.604 291.705 C 331.748 296.982,333.587 299.916,333.296 303.977 C 332.637 313.196,311.652 316.146,292.250 309.747 C 289.806 308.940,286.084 307.293,283.885 306.043 C 282.480 305.244,282.478 305.181,283.947 307.798 C 286.479 312.308,289.947 316.349,293.440 318.863 C 295.053 320.023,295.843 320.472,301.051 323.191 C 305.115 325.313,305.667 325.609,307.167 326.468 C 311.502 328.951,313.877 331.630,314.120 334.309 C 314.725 340.975,293.782 349.235,278.750 348.259 C 277.925 348.205,276.575 348.120,275.750 348.070 C 261.010 347.172,243.936 339.171,231.417 327.294 C 230.544 326.466,230.333 326.355,230.333 326.721 C 230.333 327.093,227.594 336.582,226.669 339.417 C 221.308 355.831,213.078 363.448,200.167 363.944 C 183.792 364.573,173.291 352.796,169.567 329.625 C 169.228 327.515,169.326 327.559,167.886 328.875 C 153.766 341.768,134.506 349.140,117.481 348.168 C 101.331 347.246,85.854 340.001,86.980 333.890 C 87.617 330.432,90.140 328.289,98.917 323.751 C 107.720 319.200,109.851 317.655,113.356 313.284 C 114.947 311.300,118.067 306.500,117.766 306.500 C 117.738 306.500,117.011 306.828,116.149 307.229 C 113.024 308.683,112.580 308.863,109.689 309.835 C 89.900 316.492,68.542 312.870,69.038 302.941 C 69.233 299.029,70.866 296.718,77.417 291.084 C 83.377 285.957,85.632 283.193,87.396 278.853 C 88.453 276.251,89.255 270.089,88.629 269.375 C 88.445 269.164,88.350 268.551,88.287 267.167 C 88.058 262.165,85.875 256.953,80.084 247.583 C 78.376 244.819,76.921 242.505,73.275 236.750 C 68.543 229.279,62.264 217.922,60.513 213.661 C 60.382 213.343,60.057 212.596,59.790 212.000 C 56.777 205.280,53.877 196.182,52.431 188.917 C 51.685 185.168,51.679 185.132,51.005 180.250 C 50.057 173.389,50.168 160.489,51.258 150.917 C 53.524 131.020,60.148 109.879,68.612 95.528 C 69.009 94.856,69.333 94.275,69.333 94.238 C 69.333 94.050,72.448 89.072,74.094 86.630 C 86.378 68.405,102.964 54.365,123.497 44.814 C 141.585 36.400,163.120 31.434,187.000 30.170 C 188.879 30.070,190.942 29.963,191.583 29.932 C 194.786 29.778,212.353 30.000,215.833 30.239 M286.070 135.070 C 284.649 135.689,283.677 137.119,283.670 138.600 C 283.666 139.592,283.954 140.548,284.209 140.391 C 284.316 140.324,284.335 140.362,284.257 140.489 C 283.920 141.033,286.408 142.755,286.919 142.331 C 287.047 142.225,287.238 142.191,287.344 142.256 C 287.486 142.344,287.483 142.408,287.330 142.502 C 287.214 142.574,287.575 142.681,288.164 142.750 C 288.736 142.816,289.867 143.038,290.677 143.244 C 291.707 143.505,292.202 143.565,292.325 143.442 C 292.447 143.319,292.501 143.339,292.502 143.508 C 292.505 143.825,295.939 145.167,296.748 145.167 C 298.431 145.167,299.723 143.206,298.978 141.784 C 298.291 140.475,295.525 138.133,295.091 138.493 C 294.920 138.636,294.832 138.633,294.739 138.482 C 294.663 138.360,294.685 138.325,294.796 138.394 C 294.896 138.455,295.021 138.434,295.075 138.347 C 295.200 138.144,292.346 136.526,290.177 135.572 C 288.351 134.768,287.111 134.617,286.070 135.070 M291.924 136.712 C 292.176 136.776,292.151 136.799,291.811 136.814 C 291.279 136.837,290.371 136.408,290.697 136.287 C 290.818 136.242,291.070 136.300,291.257 136.417 C 291.444 136.533,291.744 136.666,291.924 136.712 M293.000 137.502 C 293.000 137.576,293.144 137.598,293.320 137.552 C 293.496 137.506,293.769 137.541,293.927 137.629 C 294.141 137.749,294.039 137.777,293.529 137.741 C 293.152 137.714,292.766 137.645,292.671 137.586 C 292.405 137.422,292.470 137.165,292.750 137.273 C 292.887 137.326,293.000 137.429,293.000 137.502 M283.954 139.039 C 283.917 139.338,283.886 139.133,283.885 138.583 C 283.884 138.033,283.914 137.788,283.952 138.039 C 283.990 138.289,283.991 138.739,283.954 139.039 M111.156 138.727 C 109.606 139.281,102.875 143.431,104.292 142.958 C 104.423 142.915,104.500 143.053,104.500 143.335 C 104.500 143.435,104.366 143.419,104.169 143.296 C 103.562 142.917,101.167 145.607,101.167 146.668 C 101.167 148.283,102.628 148.841,104.704 148.020 C 105.371 147.757,106.179 147.484,106.500 147.414 C 107.011 147.302,107.042 147.268,106.750 147.141 C 106.504 147.035,106.570 147.016,107.000 147.071 C 107.321 147.112,108.071 147.041,108.667 146.912 C 109.666 146.697,109.691 146.682,108.986 146.715 C 108.564 146.734,108.222 146.675,108.222 146.583 C 108.222 146.492,108.491 146.405,108.820 146.390 C 109.148 146.375,109.717 146.329,110.083 146.287 C 110.450 146.245,110.544 146.243,110.292 146.282 C 109.468 146.412,109.769 146.721,110.607 146.606 C 111.032 146.548,111.763 146.488,112.232 146.474 L 113.083 146.448 112.250 146.322 C 111.493 146.208,111.523 146.201,112.583 146.243 C 113.725 146.287,114.935 145.966,114.750 145.666 C 114.705 145.594,114.865 145.486,115.104 145.426 C 115.344 145.366,115.501 145.279,115.454 145.232 C 115.407 145.185,115.544 144.971,115.758 144.757 C 118.396 142.119,114.809 137.421,111.156 138.727 M296.231 139.260 C 296.368 139.618,295.896 139.439,295.720 139.067 C 295.559 138.725,295.571 138.708,295.851 138.883 C 296.021 138.989,296.192 139.159,296.231 139.260 M111.327 139.232 C 110.928 139.612,110.314 139.743,110.437 139.423 C 110.503 139.252,110.652 139.192,110.853 139.256 C 111.026 139.311,111.167 139.276,111.167 139.178 C 111.167 139.080,111.258 139.000,111.369 139.000 C 111.508 139.000,111.495 139.073,111.327 139.232 M114.405 139.314 C 114.455 139.396,114.347 139.501,114.165 139.549 C 113.827 139.637,113.590 139.466,113.782 139.273 C 113.937 139.119,114.299 139.143,114.405 139.314 M296.936 139.906 C 296.986 140.038,297.134 140.105,297.264 140.055 C 297.394 140.005,297.500 140.047,297.500 140.149 C 297.500 140.446,297.098 140.361,296.789 140.000 C 296.632 139.817,296.580 139.667,296.674 139.667 C 296.767 139.667,296.885 139.774,296.936 139.906 M284.884 140.941 C 284.844 141.047,284.936 141.122,285.090 141.108 C 285.247 141.094,285.437 141.259,285.522 141.482 L 285.674 141.882 285.129 141.462 C 284.829 141.232,284.558 140.875,284.527 140.669 C 284.479 140.346,284.506 140.326,284.715 140.521 C 284.849 140.646,284.925 140.835,284.884 140.941 M107.833 141.000 C 107.833 141.092,107.721 141.167,107.583 141.167 C 107.446 141.167,107.333 141.092,107.333 141.000 C 107.333 140.908,107.446 140.833,107.583 140.833 C 107.721 140.833,107.833 140.908,107.833 141.000 M116.155 141.708 C 116.161 141.869,116.100 142.000,116.019 142.000 C 115.839 142.000,115.660 141.146,115.794 140.929 C 115.902 140.753,116.137 141.260,116.155 141.708 M107.099 141.526 C 107.170 141.640,107.145 141.673,107.039 141.608 C 106.941 141.547,106.738 141.619,106.589 141.768 C 106.254 142.103,106.047 141.953,106.358 141.601 C 106.629 141.294,106.937 141.263,107.099 141.526 M298.666 142.337 C 298.577 142.645,298.582 142.802,298.677 142.743 C 298.763 142.690,298.833 142.726,298.833 142.823 C 298.833 142.921,298.756 143.000,298.661 143.000 C 298.542 143.000,298.542 143.100,298.660 143.321 C 298.755 143.498,298.787 143.760,298.732 143.905 C 298.622 144.191,298.167 144.268,298.167 144.000 C 298.167 143.908,298.282 143.833,298.423 143.833 C 298.627 143.833,298.642 143.766,298.499 143.499 C 298.261 143.053,298.338 141.833,298.604 141.833 C 298.754 141.833,298.771 141.970,298.666 142.337 M105.833 142.327 C 105.833 142.507,105.293 142.833,104.997 142.833 C 104.892 142.833,104.837 142.740,104.875 142.625 C 104.913 142.510,105.026 142.417,105.125 142.417 C 105.224 142.417,105.362 142.360,105.431 142.292 C 105.606 142.116,105.833 142.136,105.833 142.327 M289.639 142.417 C 289.685 142.462,289.489 142.500,289.204 142.500 C 288.919 142.500,288.646 142.435,288.597 142.356 C 288.506 142.208,289.488 142.266,289.639 142.417 M116.333 142.700 C 116.333 142.779,116.221 142.887,116.084 142.939 C 115.947 142.992,115.867 143.087,115.907 143.150 C 115.946 143.214,115.909 143.375,115.825 143.508 C 115.712 143.686,115.671 143.613,115.669 143.236 C 115.668 142.953,115.704 142.685,115.750 142.639 C 115.889 142.500,116.333 142.546,116.333 142.700 M106.500 143.033 C 106.500 143.303,106.451 143.351,106.315 143.215 C 106.213 143.113,106.179 142.948,106.241 142.848 C 106.413 142.569,106.500 142.631,106.500 143.033 M291.500 142.845 C 291.500 143.072,290.975 143.165,290.655 142.994 C 290.227 142.765,290.240 142.752,290.917 142.737 C 291.238 142.731,291.500 142.779,291.500 142.845 M104.167 143.500 C 104.167 143.592,104.054 143.667,103.917 143.667 C 103.779 143.667,103.667 143.592,103.667 143.500 C 103.667 143.408,103.779 143.333,103.917 143.333 C 104.054 143.333,104.167 143.408,104.167 143.500 M294.601 143.862 C 294.680 143.990,294.633 144.023,294.464 143.958 C 294.323 143.904,294.108 143.947,293.987 144.055 C 293.804 144.217,293.804 144.200,293.987 143.958 C 294.244 143.618,294.432 143.589,294.601 143.862 M103.053 144.603 C 102.975 144.805,102.925 144.814,102.821 144.647 C 102.665 144.394,102.792 144.121,103.004 144.253 C 103.086 144.303,103.107 144.460,103.053 144.603 M297.833 144.580 C 297.833 144.824,297.437 144.962,296.712 144.973 C 296.075 144.983,296.155 144.736,296.802 144.693 C 297.140 144.670,297.442 144.580,297.472 144.493 C 297.560 144.241,297.833 144.307,297.833 144.580 M114.081 145.774 C 114.220 145.721,114.333 145.750,114.333 145.839 C 114.333 145.927,114.227 146.000,114.097 146.000 C 113.719 146.000,113.333 145.812,113.333 145.628 C 113.333 145.530,113.437 145.546,113.581 145.665 C 113.718 145.778,113.943 145.827,114.081 145.774 M101.600 146.583 C 101.600 146.942,101.540 147.107,101.446 147.012 C 101.316 146.882,101.410 146.000,101.553 146.000 C 101.579 146.000,101.600 146.262,101.600 146.583 M105.750 147.266 C 105.475 147.410,105.035 147.641,104.773 147.778 C 104.511 147.915,104.341 147.956,104.395 147.869 C 104.449 147.781,104.719 147.617,104.994 147.502 C 105.270 147.388,105.455 147.228,105.405 147.147 C 105.355 147.066,105.524 147.000,105.782 147.001 L 106.250 147.002 105.750 147.266 M102.676 147.761 C 102.834 147.952,103.071 147.996,103.560 147.928 C 104.175 147.842,104.203 147.854,103.906 148.079 C 103.365 148.488,102.333 148.363,102.333 147.889 C 102.333 147.756,102.258 147.693,102.167 147.750 C 102.075 147.807,102.000 147.774,102.000 147.677 C 102.000 147.411,102.430 147.464,102.676 147.761 M142.583 181.513 C 138.215 181.941,133.845 183.537,130.521 185.916 C 128.980 187.019,127.894 187.948,128.483 187.658 C 129.020 187.394,131.088 187.395,131.917 187.659 C 135.860 188.916,137.196 193.992,134.367 196.971 C 130.656 200.879,124.064 197.963,124.548 192.627 L 124.637 191.647 124.156 192.282 C 123.892 192.631,123.674 193.001,123.671 193.105 C 123.669 193.208,123.555 193.385,123.419 193.498 C 123.282 193.612,123.211 193.771,123.262 193.852 C 123.312 193.933,123.269 194.000,123.167 194.000 C 123.064 194.000,123.027 194.075,123.083 194.167 C 123.140 194.258,123.098 194.333,122.990 194.333 C 122.871 194.333,122.826 194.497,122.874 194.751 C 122.936 195.075,122.907 195.130,122.743 194.995 C 122.463 194.762,122.322 195.140,122.534 195.552 C 122.623 195.726,122.628 195.939,122.545 196.052 C 122.300 196.385,122.271 197.392,122.510 197.244 C 122.665 197.148,122.682 197.235,122.580 197.600 C 122.506 197.866,122.427 202.149,122.404 207.118 C 122.381 212.087,122.314 216.230,122.255 216.326 C 122.195 216.422,122.189 216.569,122.241 216.652 C 122.293 216.736,122.279 216.836,122.209 216.875 C 122.140 216.914,122.188 216.918,122.315 216.886 C 122.513 216.834,122.513 216.867,122.315 217.112 C 122.116 217.357,122.117 217.377,122.320 217.255 C 122.499 217.147,122.530 217.182,122.447 217.398 C 122.382 217.568,122.404 217.643,122.502 217.582 C 122.671 217.477,122.682 217.501,122.748 218.105 C 122.797 218.561,124.352 220.943,125.499 222.318 C 130.118 227.857,136.321 230.953,143.708 231.407 C 144.869 231.478,145.333 231.453,145.333 231.317 C 145.333 231.210,145.478 231.166,145.667 231.215 C 145.850 231.263,145.964 231.243,145.919 231.170 C 145.874 231.097,145.986 230.999,146.169 230.951 C 146.351 230.904,146.500 230.942,146.500 231.036 C 146.500 231.138,146.602 231.123,146.750 231.000 C 146.887 230.886,147.000 230.727,147.000 230.646 C 147.000 230.566,146.887 230.500,146.750 230.500 C 146.334 230.500,146.470 230.014,146.917 229.902 L 147.334 229.797 147.292 206.122 L 147.250 182.447 146.583 182.257 C 145.782 182.028,146.279 181.791,147.234 181.946 C 147.654 182.014,147.778 181.975,147.778 181.774 C 147.778 181.571,147.589 181.513,146.931 181.514 C 146.465 181.515,145.633 181.482,145.083 181.441 C 144.533 181.399,143.408 181.432,142.583 181.513 M252.540 181.466 C 252.424 181.543,252.049 181.582,251.706 181.552 C 251.038 181.495,250.333 181.768,250.333 182.083 C 250.333 182.200,250.122 182.254,249.792 182.221 C 249.494 182.192,249.325 182.205,249.417 182.250 C 249.527 182.305,249.555 190.365,249.500 206.179 L 249.417 230.025 250.083 229.956 C 250.450 229.918,250.619 229.917,250.458 229.955 C 250.298 229.992,250.167 230.089,250.167 230.170 C 250.167 230.251,250.298 230.393,250.458 230.487 C 250.736 230.648,250.736 230.657,250.458 230.662 C 250.298 230.664,250.167 230.740,250.167 230.829 C 250.167 230.921,250.385 230.948,250.666 230.892 C 250.963 230.832,251.268 230.876,251.416 230.999 C 252.171 231.626,258.660 230.905,261.834 229.842 C 266.389 228.316,272.898 223.517,273.723 221.077 C 273.799 220.850,273.930 220.706,274.012 220.758 C 274.095 220.809,274.113 220.722,274.053 220.565 C 273.982 220.379,274.008 220.318,274.127 220.392 C 274.228 220.454,274.354 220.434,274.408 220.348 C 274.462 220.261,274.418 220.135,274.310 220.069 C 274.180 219.989,274.160 220.021,274.250 220.167 C 274.341 220.314,274.320 220.345,274.184 220.261 C 274.048 220.177,274.037 220.073,274.151 219.936 C 274.260 219.804,274.264 219.363,274.162 218.659 C 273.962 217.276,273.949 193.782,274.148 193.905 C 274.518 194.134,274.662 193.545,274.329 193.162 C 274.144 192.949,274.058 192.731,274.138 192.679 C 274.323 192.557,274.324 191.986,274.139 192.101 C 274.063 192.148,273.991 192.107,273.979 192.010 C 273.968 191.913,273.949 191.740,273.938 191.625 C 273.926 191.510,273.811 191.417,273.683 191.417 C 273.554 191.417,273.429 191.282,273.405 191.117 C 273.380 190.953,272.939 190.337,272.423 189.750 C 268.725 185.538,262.892 182.402,257.417 181.682 C 255.457 181.425,252.781 181.306,252.540 181.466 M148.750 182.167 C 148.693 182.258,148.370 182.334,148.032 182.336 C 147.665 182.337,147.501 182.392,147.624 182.470 C 147.788 182.574,147.841 187.588,147.875 206.259 L 147.918 229.917 147.959 206.229 L 148.000 182.542 148.542 182.415 C 148.840 182.346,149.185 182.304,149.308 182.322 C 149.432 182.341,149.484 182.276,149.424 182.178 C 149.285 181.954,148.886 181.947,148.750 182.167 M240.458 197.787 C 240.756 197.824,241.244 197.824,241.542 197.787 C 241.840 197.750,241.596 197.720,241.000 197.720 C 240.404 197.720,240.160 197.750,240.458 197.787 M122.833 216.510 C 122.833 216.596,122.721 216.667,122.583 216.667 C 122.326 216.667,122.252 216.470,122.440 216.282 C 122.573 216.149,122.833 216.300,122.833 216.510 M236.083 223.833 C 236.441 224.200,236.772 224.500,236.818 224.500 C 236.863 224.500,236.608 224.200,236.250 223.833 C 235.892 223.467,235.562 223.167,235.516 223.167 C 235.470 223.167,235.725 223.467,236.083 223.833 M147.083 230.167 C 147.019 230.270,147.315 230.329,147.865 230.322 C 148.513 230.313,148.661 230.272,148.417 230.167 C 147.952 229.967,147.207 229.967,147.083 230.167 M249.333 230.500 C 249.539 230.633,249.542 230.662,249.347 230.664 C 249.217 230.666,249.152 230.708,249.203 230.758 C 249.337 230.893,250.167 230.655,250.167 230.482 C 250.167 230.400,249.923 230.334,249.625 230.336 C 249.214 230.338,249.144 230.377,249.333 230.500 M146.938 231.087 C 146.856 231.302,146.898 231.310,147.212 231.142 C 147.416 231.033,147.596 230.975,147.611 231.014 C 147.626 231.052,147.695 231.027,147.764 230.958 C 147.833 230.890,147.697 230.833,147.462 230.833 C 147.228 230.833,146.992 230.948,146.938 231.087 M180.706 253.944 C 180.498 253.988,180.368 254.088,180.417 254.167 C 180.466 254.246,180.418 254.365,180.310 254.431 C 180.188 254.506,180.160 254.479,180.234 254.359 C 180.464 253.988,179.905 254.170,179.310 254.661 C 178.397 255.414,178.143 256.112,178.077 258.059 C 177.988 260.676,179.005 263.910,179.859 263.726 C 180.224 263.648,180.230 263.658,179.952 263.886 C 178.932 264.720,186.482 270.849,188.031 270.444 C 188.197 270.400,188.297 270.425,188.251 270.498 C 188.206 270.572,188.287 270.677,188.431 270.733 C 188.806 270.876,189.034 270.857,188.931 270.690 C 188.815 270.502,190.038 270.638,190.236 270.836 C 190.327 270.928,190.129 270.958,189.736 270.913 L 189.083 270.837 189.833 271.092 C 190.835 271.431,193.747 271.866,194.489 271.786 C 194.924 271.740,194.842 271.715,194.181 271.695 C 192.583 271.645,193.404 271.480,195.555 271.418 C 196.704 271.385,197.803 271.272,197.997 271.168 C 198.192 271.064,198.478 271.012,198.634 271.053 C 198.884 271.120,198.882 271.130,198.615 271.147 C 198.449 271.158,198.352 271.229,198.399 271.306 C 198.447 271.382,198.395 271.455,198.284 271.468 C 198.174 271.481,197.446 271.564,196.667 271.653 L 195.250 271.813 196.879 271.744 C 198.933 271.657,200.791 271.349,200.477 271.147 C 200.333 271.054,200.433 271.035,200.750 271.095 C 202.849 271.491,209.478 267.670,211.901 264.667 C 213.656 262.492,215.288 258.680,214.473 258.662 C 214.329 258.658,214.353 258.596,214.542 258.487 C 214.867 258.297,214.964 256.934,214.666 256.750 C 214.574 256.693,214.540 256.480,214.591 256.277 C 214.706 255.819,214.111 254.894,213.386 254.406 C 212.467 253.786,209.833 254.155,209.833 254.903 C 209.833 255.028,209.721 255.174,209.583 255.227 C 209.446 255.280,209.332 255.231,209.331 255.120 C 209.329 254.991,209.269 255.009,209.167 255.167 C 209.078 255.304,209.004 255.359,209.003 255.288 C 209.001 255.218,208.697 255.314,208.327 255.503 C 207.924 255.709,207.701 255.921,207.770 256.032 C 207.837 256.141,207.810 256.172,207.704 256.106 C 207.459 255.955,206.321 256.512,206.450 256.720 C 206.506 256.811,206.468 256.833,206.365 256.770 C 206.263 256.706,205.895 256.834,205.548 257.053 C 203.039 258.637,198.758 259.780,195.030 259.861 L 193.750 259.889 194.750 260.000 L 195.750 260.111 194.500 260.127 C 193.280 260.143,192.030 259.894,193.000 259.829 C 193.229 259.813,192.817 259.706,192.083 259.591 C 191.350 259.476,190.085 259.152,189.272 258.871 C 188.458 258.589,187.671 258.398,187.522 258.445 C 187.302 258.515,187.295 258.500,187.484 258.365 C 187.667 258.235,187.578 258.128,187.067 257.867 C 186.475 257.564,185.880 257.009,184.089 255.083 C 183.707 254.673,183.510 254.543,183.576 254.745 C 183.636 254.925,183.633 255.022,183.570 254.959 C 183.507 254.896,183.318 254.919,183.149 255.010 C 182.817 255.187,182.880 254.703,183.219 254.476 C 183.645 254.190,181.592 253.755,180.706 253.944 M182.096 254.353 C 182.201 254.524,181.656 254.549,181.250 254.393 C 181.051 254.317,181.029 254.252,181.171 254.164 C 181.400 254.022,181.962 254.137,182.096 254.353 M211.333 254.333 C 211.333 254.425,211.245 254.500,211.138 254.500 C 211.031 254.500,210.813 254.617,210.655 254.761 C 210.460 254.937,210.330 254.963,210.255 254.841 C 210.190 254.737,210.377 254.559,210.697 254.420 C 211.373 254.126,211.333 254.132,211.333 254.333 M213.847 254.935 C 214.062 255.196,214.052 255.205,213.730 255.033 C 213.536 254.930,213.339 254.883,213.293 254.929 C 213.247 254.975,213.169 254.862,213.121 254.676 C 213.018 254.284,213.431 254.431,213.847 254.935 M212.667 254.657 C 212.970 254.747,212.846 254.779,212.208 254.775 C 211.711 254.772,211.423 254.713,211.542 254.637 C 211.787 254.482,212.095 254.487,212.667 254.657 M178.509 256.425 C 178.428 256.695,178.356 256.792,178.348 256.639 C 178.332 256.328,178.510 255.787,178.598 255.876 C 178.630 255.908,178.590 256.155,178.509 256.425 M207.833 256.434 C 207.833 256.471,207.627 256.499,207.375 256.497 C 207.041 256.496,206.981 256.454,207.152 256.346 C 207.364 256.212,207.833 256.273,207.833 256.434 M186.972 258.184 C 187.093 258.377,187.129 258.501,187.054 258.460 C 186.978 258.419,186.781 258.336,186.614 258.277 C 186.448 258.218,186.359 258.093,186.416 258.001 C 186.574 257.746,186.731 257.798,186.972 258.184 M204.202 258.198 C 204.094 258.306,203.835 258.419,203.627 258.448 C 203.341 258.488,203.308 258.463,203.492 258.345 C 203.625 258.259,203.789 258.222,203.856 258.264 C 203.922 258.305,204.024 258.263,204.082 258.169 C 204.139 258.076,204.234 258.000,204.293 258.000 C 204.352 258.000,204.311 258.089,204.202 258.198 M179.000 259.533 C 179.000 259.951,178.940 260.169,178.851 260.075 C 178.714 259.929,178.789 258.833,178.936 258.833 C 178.971 258.833,179.000 259.148,179.000 259.533 M189.426 259.245 C 189.738 259.480,189.734 259.490,189.319 259.495 C 189.045 259.498,188.889 259.409,188.889 259.250 C 188.889 258.936,189.017 258.935,189.426 259.245 M202.083 259.376 C 202.175 259.448,201.898 259.491,201.467 259.472 C 201.037 259.454,200.719 259.384,200.760 259.317 C 200.801 259.251,201.022 259.217,201.251 259.242 C 201.479 259.267,201.667 259.210,201.667 259.116 C 201.667 259.017,201.719 259.008,201.792 259.095 C 201.860 259.178,201.992 259.305,202.083 259.376 M200.083 259.676 C 200.385 259.813,200.376 259.825,200.000 259.794 C 199.771 259.776,199.490 259.819,199.375 259.890 C 199.260 259.961,199.167 259.946,199.167 259.857 C 199.167 259.712,199.443 259.529,199.667 259.525 C 199.713 259.524,199.900 259.592,200.083 259.676 M198.899 259.972 C 198.947 260.049,198.895 260.115,198.784 260.119 C 198.674 260.123,198.471 260.161,198.333 260.203 C 198.196 260.245,198.140 260.247,198.209 260.208 C 198.279 260.170,198.293 260.070,198.241 259.986 C 198.189 259.902,198.297 259.833,198.480 259.833 C 198.664 259.833,198.852 259.896,198.899 259.972 M178.664 260.708 C 178.662 261.012,178.631 261.035,178.500 260.833 C 178.291 260.510,178.291 260.333,178.500 260.333 C 178.592 260.333,178.666 260.502,178.664 260.708 M178.942 261.412 C 178.890 261.546,178.957 261.865,179.090 262.120 C 179.222 262.375,179.326 262.696,179.320 262.833 C 179.313 262.971,179.220 262.845,179.112 262.554 C 179.005 262.262,178.860 261.969,178.792 261.901 C 178.599 261.712,178.644 261.167,178.851 261.167 C 178.953 261.167,178.993 261.277,178.942 261.412 M212.127 264.081 C 211.782 264.612,211.731 264.637,211.533 264.373 C 211.350 264.127,211.360 264.074,211.605 264.024 C 211.763 263.991,211.998 263.860,212.125 263.732 C 212.519 263.338,212.520 263.474,212.127 264.081 M180.545 264.488 C 180.604 264.713,180.560 264.782,180.398 264.720 C 180.271 264.671,180.167 264.527,180.167 264.399 C 180.167 264.052,180.449 264.119,180.545 264.488 M181.156 265.333 C 181.540 265.333,182.384 266.116,182.245 266.342 C 182.131 266.527,182.001 266.444,181.140 265.641 C 180.880 265.398,180.673 265.136,180.680 265.058 C 180.687 264.980,180.731 265.010,180.777 265.125 C 180.823 265.240,180.994 265.333,181.156 265.333 M210.794 265.563 C 210.635 265.684,210.554 265.832,210.614 265.891 C 210.673 265.951,210.597 266.000,210.444 266.000 C 210.292 266.000,210.167 265.952,210.167 265.893 C 210.167 265.745,210.714 265.344,210.917 265.344 C 211.008 265.344,210.953 265.443,210.794 265.563 M210.000 266.316 C 210.000 266.397,209.887 266.508,209.750 266.560 C 209.496 266.658,209.409 266.480,209.611 266.278 C 209.770 266.118,210.000 266.141,210.000 266.316 M183.833 267.184 C 183.833 267.286,183.717 267.324,183.575 267.270 C 183.432 267.215,183.359 267.239,183.411 267.324 C 183.519 267.499,183.194 267.750,183.048 267.604 C 182.908 267.464,183.335 267.000,183.604 267.000 C 183.730 267.000,183.833 267.083,183.833 267.184 M208.750 267.333 C 208.840 267.479,208.753 267.520,208.408 267.493 C 208.357 267.489,208.181 267.651,208.018 267.853 C 207.776 268.151,207.694 268.176,207.583 267.985 C 207.508 267.856,207.506 267.804,207.579 267.869 C 207.651 267.935,207.856 267.804,208.034 267.578 C 208.381 267.137,208.586 267.067,208.750 267.333 M184.292 267.875 C 184.254 267.990,184.081 268.111,183.908 268.144 C 183.636 268.197,183.624 268.169,183.817 267.936 C 184.082 267.617,184.391 267.578,184.292 267.875 M206.669 268.741 C 206.441 268.867,206.179 268.924,206.087 268.867 C 205.995 268.811,206.107 268.712,206.335 268.649 C 207.000 268.464,207.114 268.495,206.669 268.741 M204.625 268.782 C 204.465 268.823,204.202 268.823,204.042 268.782 C 203.881 268.740,204.012 268.705,204.333 268.705 C 204.654 268.705,204.785 268.740,204.625 268.782 M186.202 269.302 C 186.482 269.582,186.132 269.551,185.740 269.261 C 185.453 269.048,185.450 269.026,185.710 269.062 C 185.871 269.085,186.093 269.193,186.202 269.302 M205.667 269.167 C 205.667 269.258,205.635 269.333,205.597 269.333 C 205.559 269.333,205.421 269.374,205.291 269.424 C 205.151 269.478,205.056 269.410,205.056 269.257 C 205.056 269.116,205.193 269.000,205.361 269.000 C 205.529 269.000,205.667 269.075,205.667 269.167 M187.278 269.757 C 187.278 269.910,187.182 269.978,187.042 269.924 C 186.912 269.874,186.737 269.833,186.653 269.833 C 186.569 269.833,186.500 269.758,186.500 269.667 C 186.500 269.575,186.675 269.500,186.889 269.500 C 187.128 269.500,187.278 269.599,187.278 269.757 M204.135 269.679 C 204.102 269.778,204.028 269.834,203.972 269.804 C 203.915 269.774,203.715 269.889,203.527 270.059 C 203.339 270.229,203.088 270.328,202.968 270.280 C 202.826 270.224,202.852 270.188,203.042 270.180 C 203.202 270.173,203.333 270.060,203.333 269.931 C 203.333 269.691,203.569 269.537,203.972 269.513 C 204.094 269.506,204.168 269.581,204.135 269.679 M201.693 270.600 C 201.483 270.747,201.267 270.822,201.211 270.767 C 201.156 270.712,201.217 270.666,201.347 270.664 C 201.542 270.662,201.539 270.633,201.333 270.500 C 201.141 270.376,201.198 270.338,201.579 270.336 L 202.074 270.333 201.693 270.600 M191.833 270.819 C 191.696 270.898,191.358 270.996,191.083 271.038 C 190.808 271.081,190.677 271.084,190.792 271.045 C 190.906 271.007,191.000 270.906,191.000 270.821 C 191.000 270.736,191.244 270.669,191.542 270.672 C 191.927 270.675,192.011 270.718,191.833 270.819 M195.711 271.117 C 195.506 271.157,195.131 271.158,194.877 271.120 C 194.624 271.081,194.792 271.049,195.250 271.048 C 195.708 271.046,195.916 271.078,195.711 271.117 " stroke="none" fill="#1b044b" fill-rule="evenodd"></path><path id="path2" d="M140.833 165.277 C 113.139 166.567,97.465 197.632,112.887 220.667 C 128.054 243.321,162.320 240.951,174.344 216.417 C 186.162 192.304,167.634 164.028,140.833 165.277 M249.909 168.248 C 223.068 171.672,211.572 204.144,230.326 223.564 C 248.561 242.448,280.502 233.280,286.006 207.583 C 290.677 185.775,272.006 165.429,249.909 168.248 M149.684 181.819 C 166.082 185.096,174.711 203.113,167.040 218.058 C 162.250 227.388,151.597 232.830,141.207 231.254 C 123.340 228.542,114.007 208.626,123.436 193.333 C 124.834 191.067,124.750 191.086,124.750 193.038 C 124.750 199.107,132.617 200.962,135.288 195.524 C 137.408 191.207,133.357 186.552,128.500 187.724 L 127.917 187.865 128.500 187.347 C 133.867 182.579,142.376 180.359,149.684 181.819 M258.723 181.822 C 277.150 185.684,284.980 207.303,273.255 221.945 C 264.155 233.309,247.134 234.394,236.558 224.284 C 226.945 215.093,226.269 200.014,235.016 189.876 C 236.232 188.466,236.324 188.448,235.733 189.740 C 233.420 194.793,239.324 199.737,244.093 196.741 C 249.987 193.039,245.030 184.031,238.598 186.755 C 237.935 187.036,238.535 186.498,239.894 185.594 C 243.299 183.328,247.100 181.946,251.333 181.434 C 252.776 181.259,257.131 181.488,258.723 181.822 " stroke="none" fill="#fbfbfb" fill-rule="evenodd"></path><path id="path3" d="M290.697 136.287 C 290.371 136.408,291.279 136.837,291.811 136.814 C 292.151 136.799,292.176 136.776,291.924 136.712 C 291.744 136.666,291.444 136.533,291.257 136.417 C 291.070 136.300,290.818 136.242,290.697 136.287 M292.500 137.329 C 292.500 137.571,292.794 137.689,293.529 137.741 C 294.039 137.777,294.141 137.749,293.927 137.629 C 293.769 137.541,293.496 137.506,293.320 137.552 C 293.144 137.598,293.000 137.576,293.000 137.502 C 293.000 137.429,292.887 137.326,292.750 137.273 C 292.612 137.220,292.500 137.245,292.500 137.329 M283.885 138.583 C 283.886 139.133,283.917 139.338,283.954 139.039 C 283.991 138.739,283.990 138.289,283.952 138.039 C 283.914 137.788,283.884 138.033,283.885 138.583 M295.720 139.067 C 295.818 139.275,295.989 139.444,296.100 139.444 C 296.374 139.444,296.230 139.120,295.851 138.883 C 295.571 138.708,295.559 138.725,295.720 139.067 M111.167 139.178 C 111.167 139.276,111.026 139.311,110.853 139.256 C 110.652 139.192,110.503 139.252,110.437 139.423 C 110.356 139.634,110.412 139.666,110.709 139.576 C 111.166 139.440,111.669 139.000,111.369 139.000 C 111.258 139.000,111.167 139.080,111.167 139.178 M113.782 139.273 C 113.590 139.466,113.827 139.637,114.165 139.549 C 114.347 139.501,114.455 139.396,114.405 139.314 C 114.299 139.143,113.937 139.119,113.782 139.273 M296.789 140.000 C 297.098 140.361,297.500 140.446,297.500 140.149 C 297.500 140.047,297.394 140.005,297.264 140.055 C 297.134 140.105,296.986 140.038,296.936 139.906 C 296.885 139.774,296.767 139.667,296.674 139.667 C 296.580 139.667,296.632 139.817,296.789 140.000 M284.527 140.669 C 284.558 140.875,284.829 141.232,285.129 141.462 L 285.674 141.882 285.522 141.482 C 285.437 141.259,285.247 141.094,285.090 141.108 C 284.936 141.122,284.844 141.047,284.884 140.941 C 284.925 140.835,284.849 140.646,284.715 140.521 C 284.506 140.326,284.479 140.346,284.527 140.669 M107.333 141.000 C 107.333 141.092,107.446 141.167,107.583 141.167 C 107.721 141.167,107.833 141.092,107.833 141.000 C 107.833 140.908,107.721 140.833,107.583 140.833 C 107.446 140.833,107.333 140.908,107.333 141.000 M115.794 140.929 C 115.660 141.146,115.839 142.000,116.019 142.000 C 116.195 142.000,116.193 141.545,116.017 141.094 C 115.948 140.917,115.847 140.843,115.794 140.929 M106.358 141.601 C 106.047 141.953,106.254 142.103,106.589 141.768 C 106.738 141.619,106.941 141.547,107.039 141.608 C 107.145 141.673,107.170 141.640,107.099 141.526 C 106.937 141.263,106.629 141.294,106.358 141.601 M298.359 142.499 C 298.338 142.864,298.401 143.314,298.499 143.499 C 298.642 143.766,298.627 143.833,298.423 143.833 C 298.282 143.833,298.167 143.908,298.167 144.000 C 298.167 144.268,298.622 144.191,298.732 143.905 C 298.787 143.760,298.755 143.498,298.660 143.321 C 298.542 143.100,298.542 143.000,298.661 143.000 C 298.756 143.000,298.833 142.921,298.833 142.823 C 298.833 142.726,298.763 142.690,298.677 142.743 C 298.582 142.802,298.577 142.645,298.666 142.337 C 298.771 141.970,298.754 141.833,298.604 141.833 C 298.482 141.833,298.383 142.103,298.359 142.499 M105.431 142.292 C 105.362 142.360,105.224 142.417,105.125 142.417 C 105.026 142.417,104.913 142.510,104.875 142.625 C 104.837 142.740,104.892 142.833,104.997 142.833 C 105.293 142.833,105.833 142.507,105.833 142.327 C 105.833 142.136,105.606 142.116,105.431 142.292 M286.917 142.333 C 286.860 142.425,286.973 142.500,287.167 142.500 C 287.361 142.500,287.473 142.425,287.417 142.333 C 287.360 142.242,287.248 142.167,287.167 142.167 C 287.086 142.167,286.973 142.242,286.917 142.333 M288.597 142.356 C 288.646 142.435,288.919 142.500,289.204 142.500 C 289.847 142.500,289.737 142.354,289.032 142.272 C 288.744 142.239,288.548 142.276,288.597 142.356 M115.750 142.639 C 115.704 142.685,115.668 142.953,115.669 143.236 C 115.671 143.613,115.712 143.686,115.825 143.508 C 115.909 143.375,115.946 143.214,115.907 143.150 C 115.867 143.087,115.947 142.992,116.084 142.939 C 116.221 142.887,116.333 142.779,116.333 142.700 C 116.333 142.546,115.889 142.500,115.750 142.639 M106.241 142.848 C 106.179 142.948,106.213 143.113,106.315 143.215 C 106.451 143.351,106.500 143.303,106.500 143.033 C 106.500 142.631,106.413 142.569,106.241 142.848 M290.334 142.786 C 290.332 142.931,291.028 143.146,291.238 143.065 C 291.689 142.892,291.525 142.724,290.917 142.737 C 290.597 142.744,290.334 142.766,290.334 142.786 M104.192 142.984 C 104.030 143.085,104.036 143.156,104.223 143.311 C 104.410 143.466,104.481 143.455,104.557 143.260 C 104.673 142.957,104.477 142.808,104.192 142.984 M103.667 143.500 C 103.667 143.592,103.779 143.667,103.917 143.667 C 104.054 143.667,104.167 143.592,104.167 143.500 C 104.167 143.408,104.054 143.333,103.917 143.333 C 103.779 143.333,103.667 143.408,103.667 143.500 M293.987 143.958 C 293.804 144.200,293.804 144.217,293.987 144.055 C 294.108 143.947,294.323 143.904,294.464 143.958 C 294.633 144.023,294.680 143.990,294.601 143.862 C 294.432 143.589,294.244 143.618,293.987 143.958 M102.773 144.297 C 102.726 144.372,102.748 144.529,102.821 144.647 C 102.925 144.814,102.975 144.805,103.053 144.603 C 103.158 144.329,102.916 144.065,102.773 144.297 M297.472 144.493 C 297.442 144.580,297.140 144.670,296.802 144.693 C 296.155 144.736,296.075 144.983,296.712 144.973 C 297.437 144.962,297.833 144.824,297.833 144.580 C 297.833 144.307,297.560 144.241,297.472 144.493 M113.333 145.628 C 113.333 145.812,113.719 146.000,114.097 146.000 C 114.227 146.000,114.333 145.927,114.333 145.839 C 114.333 145.750,114.220 145.721,114.081 145.774 C 113.943 145.827,113.718 145.778,113.581 145.665 C 113.437 145.546,113.333 145.530,113.333 145.628 M101.399 146.429 C 101.340 146.665,101.361 146.927,101.446 147.012 C 101.540 147.107,101.600 146.942,101.600 146.583 C 101.600 145.890,101.545 145.847,101.399 146.429 M109.583 146.321 C 109.400 146.394,109.019 146.445,108.736 146.435 C 108.453 146.425,108.222 146.492,108.222 146.583 C 108.222 146.679,108.563 146.726,109.028 146.692 C 109.471 146.660,109.833 146.571,109.833 146.494 C 109.833 146.417,110.077 146.324,110.375 146.287 L 110.917 146.220 110.417 146.204 C 110.142 146.195,109.767 146.248,109.583 146.321 M111.961 146.287 C 112.261 146.325,112.711 146.324,112.961 146.286 C 113.212 146.248,112.967 146.217,112.417 146.218 C 111.867 146.219,111.662 146.250,111.961 146.287 M105.405 147.147 C 105.455 147.228,105.270 147.388,104.994 147.502 C 104.719 147.617,104.449 147.781,104.395 147.869 C 104.341 147.956,104.511 147.915,104.773 147.778 C 105.035 147.641,105.475 147.410,105.750 147.266 L 106.250 147.002 105.782 147.001 C 105.524 147.000,105.355 147.066,105.405 147.147 M102.000 147.677 C 102.000 147.774,102.075 147.807,102.167 147.750 C 102.258 147.693,102.333 147.756,102.333 147.889 C 102.333 148.363,103.365 148.488,103.906 148.079 C 104.203 147.854,104.175 147.842,103.560 147.928 C 103.071 147.996,102.834 147.952,102.676 147.761 C 102.430 147.464,102.000 147.411,102.000 147.677 M147.766 181.859 C 147.852 181.998,147.716 182.025,147.288 181.955 C 146.292 181.793,145.759 182.022,146.583 182.257 L 147.250 182.447 147.292 206.122 L 147.334 229.797 146.917 229.902 C 146.470 230.014,146.334 230.500,146.750 230.500 C 146.887 230.500,147.000 230.566,147.000 230.646 C 147.000 230.867,146.541 231.203,146.475 231.031 C 146.443 230.949,146.155 230.974,145.833 231.088 L 145.250 231.295 146.250 231.302 C 151.487 231.338,158.027 228.461,162.269 224.255 C 174.615 212.014,171.338 191.699,155.774 183.990 C 153.065 182.648,147.307 181.116,147.766 181.859 M248.583 181.996 C 245.637 182.626,242.549 183.945,239.948 185.683 C 239.348 186.085,238.871 186.424,238.887 186.437 C 238.903 186.451,239.363 186.372,239.907 186.261 C 245.462 185.137,249.103 192.015,245.102 196.073 C 240.849 200.387,233.510 195.862,235.456 190.125 C 235.635 189.598,235.762 189.167,235.738 189.167 C 235.713 189.167,235.226 189.748,234.653 190.458 C 224.655 202.873,228.291 220.892,242.287 228.286 C 244.236 229.316,247.700 230.554,248.366 230.458 C 248.613 230.423,248.778 230.455,248.731 230.530 C 248.685 230.605,248.858 230.666,249.115 230.664 C 249.479 230.662,249.527 230.625,249.333 230.500 C 249.144 230.377,249.214 230.338,249.625 230.336 C 249.923 230.334,250.167 230.408,250.167 230.500 C 250.167 230.592,250.042 230.667,249.889 230.667 C 249.736 230.667,249.652 230.708,249.703 230.758 C 249.753 230.808,250.000 230.798,250.251 230.735 C 250.632 230.639,250.663 230.595,250.438 230.468 C 250.083 230.270,250.093 230.041,250.458 229.955 C 250.619 229.917,250.450 229.918,250.083 229.956 L 249.417 230.025 249.500 206.179 C 249.555 190.365,249.527 182.305,249.417 182.250 C 249.325 182.205,249.494 182.192,249.792 182.221 C 250.141 182.256,250.333 182.202,250.333 182.068 C 250.333 181.954,250.427 181.823,250.542 181.777 C 250.986 181.598,249.853 181.724,248.583 181.996 M149.424 182.178 C 149.484 182.276,149.432 182.341,149.308 182.322 C 149.185 182.304,148.840 182.346,148.542 182.415 L 148.000 182.542 147.959 206.229 L 147.918 229.917 147.875 206.259 C 147.841 187.588,147.788 182.574,147.624 182.470 C 147.501 182.392,147.665 182.337,148.032 182.336 C 148.370 182.334,148.693 182.258,148.750 182.167 C 148.886 181.947,149.285 181.954,149.424 182.178 M274.082 192.104 C 274.284 192.413,274.313 192.576,274.181 192.658 C 274.052 192.738,274.099 192.896,274.329 193.162 C 274.662 193.545,274.518 194.134,274.148 193.905 C 273.949 193.782,273.962 217.276,274.162 218.659 C 274.269 219.399,274.262 219.802,274.138 219.951 C 274.040 220.069,274.008 220.167,274.067 220.167 C 274.127 220.167,274.051 220.410,273.900 220.708 C 273.748 221.006,273.683 221.194,273.755 221.126 C 273.885 221.004,273.962 220.893,274.896 219.492 C 279.238 212.978,279.866 203.236,276.417 195.892 C 275.741 194.453,274.069 191.667,273.881 191.667 C 273.834 191.667,273.924 191.864,274.082 192.104 M121.782 196.731 C 119.611 201.917,119.245 207.972,120.780 213.333 C 121.148 214.620,121.997 216.728,122.195 216.851 C 122.287 216.908,122.348 217.005,122.330 217.067 C 122.283 217.238,122.700 218.189,122.785 218.104 C 122.825 218.064,122.738 217.799,122.591 217.515 C 122.445 217.232,122.373 217.000,122.433 217.000 C 122.492 217.000,122.450 216.891,122.339 216.757 C 122.229 216.624,122.188 216.433,122.250 216.333 C 122.312 216.234,122.381 212.087,122.404 207.118 C 122.427 202.149,122.506 197.866,122.580 197.600 C 122.682 197.235,122.665 197.148,122.510 197.244 C 122.270 197.392,122.301 196.384,122.546 196.050 C 122.632 195.934,122.628 195.735,122.538 195.573 C 122.415 195.355,122.255 195.601,121.782 196.731 M122.440 216.282 C 122.252 216.470,122.326 216.667,122.583 216.667 C 122.721 216.667,122.833 216.596,122.833 216.510 C 122.833 216.300,122.573 216.149,122.440 216.282 M148.417 230.167 C 148.661 230.272,148.513 230.313,147.865 230.322 C 147.315 230.329,147.019 230.270,147.083 230.167 C 147.207 229.967,147.952 229.967,148.417 230.167 M147.773 230.949 C 147.583 231.139,147.000 231.177,147.000 230.999 C 147.000 230.908,147.200 230.833,147.444 230.833 C 147.689 230.833,147.837 230.885,147.773 230.949 M181.171 254.164 C 181.029 254.252,181.051 254.317,181.250 254.393 C 181.656 254.549,182.201 254.524,182.096 254.353 C 181.962 254.137,181.400 254.022,181.171 254.164 M210.697 254.420 C 210.377 254.559,210.190 254.737,210.255 254.841 C 210.330 254.963,210.460 254.937,210.655 254.761 C 210.813 254.617,211.031 254.500,211.138 254.500 C 211.245 254.500,211.333 254.425,211.333 254.333 C 211.333 254.132,211.373 254.126,210.697 254.420 M213.121 254.676 C 213.169 254.862,213.247 254.975,213.293 254.929 C 213.339 254.883,213.536 254.930,213.730 255.033 C 214.052 255.205,214.062 255.196,213.847 254.935 C 213.431 254.431,213.018 254.284,213.121 254.676 M182.952 254.830 C 182.881 255.104,182.917 255.134,183.161 255.003 C 183.323 254.916,183.507 254.896,183.570 254.959 C 183.633 255.022,183.635 254.944,183.574 254.787 C 183.425 254.398,183.059 254.424,182.952 254.830 M211.542 254.637 C 211.423 254.713,211.711 254.772,212.208 254.775 C 212.846 254.779,212.970 254.747,212.667 254.657 C 212.095 254.487,211.787 254.482,211.542 254.637 M178.437 256.090 C 178.380 256.239,178.340 256.486,178.348 256.639 C 178.356 256.792,178.428 256.695,178.509 256.425 C 178.666 255.899,178.610 255.639,178.437 256.090 M207.152 256.346 C 206.981 256.454,207.041 256.496,207.375 256.497 C 207.873 256.500,207.962 256.418,207.610 256.283 C 207.487 256.236,207.281 256.264,207.152 256.346 M178.012 258.014 C 178.018 258.327,178.088 258.733,178.168 258.917 C 178.261 259.131,178.278 258.953,178.216 258.417 C 178.101 257.426,177.995 257.216,178.012 258.014 M186.416 258.001 C 186.359 258.093,186.448 258.218,186.614 258.277 C 186.781 258.336,186.978 258.419,187.054 258.460 C 187.129 258.501,187.093 258.377,186.972 258.184 C 186.731 257.798,186.574 257.746,186.416 258.001 M204.082 258.169 C 204.024 258.263,203.922 258.305,203.856 258.264 C 203.789 258.222,203.625 258.259,203.492 258.345 C 203.308 258.463,203.341 258.488,203.627 258.448 C 203.963 258.401,204.559 258.000,204.293 258.000 C 204.234 258.000,204.139 258.076,204.082 258.169 M178.787 259.375 C 178.740 259.673,178.769 259.988,178.851 260.075 C 178.940 260.169,179.000 259.951,179.000 259.533 C 179.000 258.698,178.903 258.626,178.787 259.375 M188.889 259.250 C 188.889 259.409,189.045 259.498,189.319 259.495 C 189.734 259.490,189.738 259.480,189.426 259.245 C 189.017 258.935,188.889 258.936,188.889 259.250 M201.667 259.116 C 201.667 259.210,201.479 259.267,201.251 259.242 C 201.022 259.217,200.801 259.251,200.760 259.317 C 200.719 259.384,201.037 259.454,201.467 259.472 C 201.898 259.491,202.175 259.448,202.083 259.376 C 201.992 259.305,201.860 259.178,201.792 259.095 C 201.719 259.008,201.667 259.017,201.667 259.116 M199.375 259.610 C 199.260 259.657,199.167 259.768,199.167 259.857 C 199.167 259.946,199.260 259.961,199.375 259.890 C 199.490 259.819,199.771 259.776,200.000 259.794 C 200.376 259.825,200.385 259.813,200.083 259.676 C 199.700 259.501,199.657 259.497,199.375 259.610 M192.917 259.994 C 193.228 260.134,195.804 260.239,195.653 260.105 C 195.615 260.072,194.908 259.999,194.083 259.944 C 193.145 259.882,192.708 259.900,192.917 259.994 M198.241 259.986 C 198.293 260.070,198.279 260.170,198.209 260.208 C 198.140 260.247,198.196 260.245,198.333 260.203 C 198.471 260.161,198.674 260.123,198.784 260.119 C 199.125 260.106,198.835 259.833,198.480 259.833 C 198.297 259.833,198.189 259.902,198.241 259.986 M178.336 260.458 C 178.343 260.824,178.662 261.066,178.664 260.708 C 178.666 260.502,178.592 260.333,178.500 260.333 C 178.408 260.333,178.334 260.390,178.336 260.458 M178.667 261.472 C 178.667 261.640,178.723 261.833,178.792 261.901 C 178.860 261.969,179.005 262.262,179.112 262.554 C 179.220 262.845,179.313 262.971,179.320 262.833 C 179.326 262.696,179.222 262.375,179.090 262.120 C 178.957 261.865,178.890 261.546,178.942 261.412 C 178.993 261.277,178.953 261.167,178.851 261.167 C 178.750 261.167,178.667 261.304,178.667 261.472 M212.125 263.732 C 211.998 263.860,211.763 263.991,211.605 264.024 C 211.360 264.074,211.350 264.127,211.533 264.373 C 211.731 264.637,211.782 264.612,212.127 264.081 C 212.520 263.474,212.519 263.338,212.125 263.732 M180.167 264.399 C 180.167 264.527,180.271 264.671,180.398 264.720 C 180.560 264.782,180.604 264.713,180.545 264.488 C 180.449 264.119,180.167 264.052,180.167 264.399 M180.680 265.058 C 180.673 265.136,180.880 265.398,181.140 265.641 C 182.001 266.444,182.131 266.527,182.245 266.342 C 182.384 266.116,181.540 265.333,181.156 265.333 C 180.994 265.333,180.823 265.240,180.777 265.125 C 180.731 265.010,180.687 264.980,180.680 265.058 M210.458 265.565 C 210.092 265.844,210.087 266.000,210.444 266.000 C 210.597 266.000,210.673 265.951,210.614 265.891 C 210.554 265.832,210.635 265.684,210.794 265.563 C 210.953 265.443,211.008 265.344,210.917 265.344 C 210.825 265.344,210.619 265.444,210.458 265.565 M209.611 266.278 C 209.409 266.480,209.496 266.658,209.750 266.560 C 209.887 266.508,210.000 266.397,210.000 266.316 C 210.000 266.141,209.770 266.118,209.611 266.278 M183.163 267.254 C 183.047 267.394,182.996 267.551,183.048 267.604 C 183.194 267.750,183.519 267.499,183.411 267.324 C 183.359 267.239,183.432 267.215,183.575 267.270 C 183.717 267.324,183.833 267.286,183.833 267.184 C 183.833 266.915,183.408 266.959,183.163 267.254 M208.034 267.578 C 207.856 267.804,207.651 267.935,207.579 267.869 C 207.506 267.804,207.508 267.856,207.583 267.985 C 207.694 268.176,207.776 268.151,208.018 267.853 C 208.181 267.651,208.357 267.489,208.408 267.493 C 208.753 267.520,208.840 267.479,208.750 267.333 C 208.586 267.067,208.381 267.137,208.034 267.578 M183.817 267.936 C 183.624 268.169,183.636 268.197,183.908 268.144 C 184.081 268.111,184.254 267.990,184.292 267.875 C 184.391 267.578,184.082 267.617,183.817 267.936 M206.335 268.649 C 206.107 268.712,205.995 268.811,206.087 268.867 C 206.179 268.924,206.441 268.867,206.669 268.741 C 207.114 268.495,207.000 268.464,206.335 268.649 M204.042 268.782 C 204.202 268.823,204.465 268.823,204.625 268.782 C 204.785 268.740,204.654 268.705,204.333 268.705 C 204.012 268.705,203.881 268.740,204.042 268.782 M185.740 269.261 C 185.918 269.392,186.139 269.500,186.232 269.500 C 186.502 269.500,186.035 269.108,185.710 269.062 C 185.450 269.026,185.453 269.048,185.740 269.261 M205.056 269.257 C 205.056 269.410,205.151 269.478,205.291 269.424 C 205.421 269.374,205.559 269.333,205.597 269.333 C 205.635 269.333,205.667 269.258,205.667 269.167 C 205.667 269.075,205.529 269.000,205.361 269.000 C 205.193 269.000,205.056 269.116,205.056 269.257 M186.500 269.667 C 186.500 269.758,186.569 269.833,186.653 269.833 C 186.737 269.833,186.912 269.874,187.042 269.924 C 187.182 269.978,187.278 269.910,187.278 269.757 C 187.278 269.599,187.128 269.500,186.889 269.500 C 186.675 269.500,186.500 269.575,186.500 269.667 M203.542 269.610 C 203.427 269.657,203.333 269.801,203.333 269.931 C 203.333 270.060,203.202 270.173,203.042 270.180 C 202.852 270.188,202.826 270.224,202.968 270.280 C 203.088 270.328,203.339 270.229,203.527 270.059 C 203.715 269.889,203.915 269.774,203.972 269.804 C 204.028 269.834,204.102 269.778,204.135 269.679 C 204.196 269.495,203.910 269.462,203.542 269.610 M201.333 270.500 C 201.539 270.633,201.542 270.662,201.347 270.664 C 201.217 270.666,201.156 270.712,201.211 270.767 C 201.267 270.822,201.483 270.747,201.693 270.600 L 202.074 270.333 201.579 270.336 C 201.198 270.338,201.141 270.376,201.333 270.500 M188.947 270.667 C 189.151 270.851,190.417 271.017,190.236 270.836 C 190.152 270.752,189.797 270.652,189.447 270.613 C 189.097 270.575,188.872 270.599,188.947 270.667 M191.000 270.821 C 191.000 270.906,190.906 271.007,190.792 271.045 C 190.677 271.084,190.808 271.081,191.083 271.038 C 191.882 270.916,192.180 270.678,191.542 270.672 C 191.244 270.669,191.000 270.736,191.000 270.821 M194.877 271.120 C 195.131 271.158,195.506 271.157,195.711 271.117 C 195.916 271.078,195.708 271.046,195.250 271.048 C 194.792 271.049,194.624 271.081,194.877 271.120 M197.950 271.184 C 197.786 271.280,196.736 271.387,195.617 271.422 C 193.125 271.500,192.994 271.522,194.224 271.653 C 195.014 271.737,196.364 271.675,198.284 271.466 C 198.395 271.454,198.450 271.388,198.407 271.318 C 198.364 271.249,198.461 271.157,198.623 271.115 C 198.871 271.050,198.865 271.036,198.583 271.024 C 198.400 271.017,198.115 271.089,197.950 271.184 " stroke="none" fill="#070411" fill-rule="evenodd"></path><path id="path4" d="M193.548 29.957 C 194.078 29.990,194.903 29.990,195.381 29.956 C 195.859 29.922,195.425 29.895,194.417 29.896 C 193.408 29.896,193.017 29.924,193.548 29.957 M205.465 29.957 C 206.041 29.990,206.941 29.989,207.465 29.956 C 207.988 29.923,207.517 29.897,206.417 29.897 C 205.317 29.897,204.888 29.924,205.465 29.957 M188.875 30.121 C 189.219 30.157,189.781 30.157,190.125 30.121 C 190.469 30.085,190.188 30.056,189.500 30.056 C 188.813 30.056,188.531 30.085,188.875 30.121 M211.129 30.122 C 211.521 30.157,212.121 30.157,212.463 30.121 C 212.804 30.085,212.483 30.057,211.750 30.057 C 211.017 30.058,210.737 30.087,211.129 30.122 M185.792 30.284 C 185.998 30.324,186.335 30.324,186.542 30.284 C 186.748 30.245,186.579 30.212,186.167 30.212 C 185.754 30.212,185.585 30.245,185.792 30.284 M214.792 30.284 C 214.998 30.324,215.335 30.324,215.542 30.284 C 215.748 30.245,215.579 30.212,215.167 30.212 C 214.754 30.212,214.585 30.245,214.792 30.284 M183.042 30.453 C 183.294 30.491,183.706 30.491,183.958 30.453 C 184.210 30.415,184.004 30.383,183.500 30.383 C 182.996 30.383,182.790 30.415,183.042 30.453 M217.295 30.454 C 217.594 30.491,218.044 30.490,218.295 30.452 C 218.545 30.414,218.300 30.384,217.750 30.385 C 217.200 30.386,216.995 30.417,217.295 30.454 M181.042 30.615 C 181.202 30.657,181.465 30.657,181.625 30.615 C 181.785 30.573,181.654 30.539,181.333 30.539 C 181.012 30.539,180.881 30.573,181.042 30.615 M178.960 30.785 C 179.168 30.824,179.468 30.823,179.627 30.781 C 179.786 30.739,179.617 30.707,179.250 30.709 C 178.883 30.711,178.753 30.745,178.960 30.785 M221.794 30.785 C 222.001 30.824,222.301 30.823,222.460 30.781 C 222.620 30.739,222.450 30.707,222.083 30.709 C 221.717 30.711,221.586 30.745,221.794 30.785 M177.208 30.948 C 177.369 30.990,177.631 30.990,177.792 30.948 C 177.952 30.906,177.821 30.872,177.500 30.872 C 177.179 30.872,177.048 30.906,177.208 30.948 M223.542 30.948 C 223.702 30.990,223.965 30.990,224.125 30.948 C 224.285 30.906,224.154 30.872,223.833 30.872 C 223.512 30.872,223.381 30.906,223.542 30.948 M173.960 31.285 C 174.168 31.324,174.468 31.323,174.627 31.281 C 174.786 31.239,174.617 31.207,174.250 31.209 C 173.883 31.211,173.753 31.245,173.960 31.285 M226.794 31.285 C 227.001 31.324,227.301 31.323,227.460 31.281 C 227.620 31.239,227.450 31.207,227.083 31.209 C 226.717 31.211,226.586 31.245,226.794 31.285 M115.292 48.929 C 114.669 49.267,114.707 49.407,115.333 49.083 C 115.608 48.941,115.833 48.789,115.833 48.746 C 115.833 48.638,115.815 48.645,115.292 48.929 M295.583 53.753 C 295.767 53.902,296.067 54.098,296.250 54.188 L 296.583 54.352 296.250 54.080 C 296.067 53.931,295.767 53.735,295.583 53.645 L 295.250 53.482 295.583 53.753 M104.417 55.765 L 103.917 56.194 104.458 55.836 C 104.756 55.639,105.000 55.445,105.000 55.405 C 105.000 55.281,104.929 55.324,104.417 55.765 M302.667 58.561 C 302.667 58.606,302.892 58.804,303.167 59.000 C 303.442 59.196,303.667 59.319,303.667 59.273 C 303.667 59.227,303.442 59.029,303.167 58.833 C 302.892 58.638,302.667 58.515,302.667 58.561 M310.000 64.385 C 310.000 64.414,310.244 64.658,310.542 64.927 L 311.083 65.417 310.594 64.875 C 310.138 64.370,310.000 64.257,310.000 64.385 M92.573 65.208 L 92.083 65.750 92.625 65.260 C 92.923 64.991,93.167 64.748,93.167 64.719 C 93.167 64.590,93.029 64.703,92.573 65.208 M311.826 66.042 C 312.517 66.778,312.667 66.910,312.667 66.785 C 312.667 66.758,312.310 66.402,311.875 65.993 L 311.083 65.250 311.826 66.042 M88.498 69.125 L 85.917 71.750 88.542 69.169 C 89.985 67.749,91.167 66.568,91.167 66.544 C 91.167 66.425,90.896 66.686,88.498 69.125 M313.167 67.213 C 313.167 67.238,313.748 67.819,314.458 68.504 L 315.750 69.750 314.504 68.458 C 313.347 67.259,313.167 67.091,313.167 67.213 M318.083 72.167 C 318.905 72.992,319.614 73.667,319.660 73.667 C 319.706 73.667,319.071 72.992,318.250 72.167 C 317.429 71.342,316.719 70.667,316.674 70.667 C 316.628 70.667,317.262 71.342,318.083 72.167 M84.575 73.208 L 83.917 73.917 84.625 73.258 C 85.284 72.645,85.410 72.500,85.284 72.500 C 85.257 72.500,84.938 72.819,84.575 73.208 M83.240 74.708 L 82.750 75.250 83.292 74.760 C 83.797 74.304,83.910 74.167,83.781 74.167 C 83.752 74.167,83.509 74.410,83.240 74.708 M320.667 74.917 C 320.978 75.237,321.270 75.500,321.315 75.500 C 321.361 75.500,321.144 75.237,320.833 74.917 C 320.522 74.596,320.230 74.333,320.185 74.333 C 320.139 74.333,320.356 74.596,320.667 74.917 M322.500 77.052 C 322.500 77.081,322.744 77.325,323.042 77.594 L 323.583 78.083 323.094 77.542 C 322.638 77.037,322.500 76.923,322.500 77.052 M76.833 82.667 C 76.638 82.942,76.515 83.167,76.561 83.167 C 76.606 83.167,76.804 82.942,77.000 82.667 C 77.196 82.392,77.319 82.167,77.273 82.167 C 77.227 82.167,77.029 82.392,76.833 82.667 M67.750 97.000 C 67.608 97.275,67.529 97.500,67.575 97.500 C 67.621 97.500,67.774 97.275,67.917 97.000 C 68.059 96.725,68.138 96.500,68.092 96.500 C 68.046 96.500,67.892 96.725,67.750 97.000 M65.658 101.016 C 65.467 101.392,65.339 101.728,65.374 101.762 C 65.409 101.797,65.600 101.490,65.800 101.080 C 66.254 100.145,66.131 100.090,65.658 101.016 M287.211 134.786 C 287.464 134.825,287.839 134.824,288.044 134.784 C 288.249 134.744,288.042 134.713,287.583 134.714 C 287.125 134.716,286.957 134.748,287.211 134.786 M283.539 138.667 C 283.539 138.987,283.573 139.119,283.615 138.958 C 283.657 138.798,283.657 138.535,283.615 138.375 C 283.573 138.215,283.539 138.346,283.539 138.667 M284.667 141.417 C 284.978 141.737,285.270 142.000,285.315 142.000 C 285.361 142.000,285.144 141.737,284.833 141.417 C 284.522 141.096,284.230 140.833,284.185 140.833 C 284.139 140.833,284.356 141.096,284.667 141.417 M102.577 144.208 L 101.750 145.083 102.625 144.256 C 103.106 143.801,103.500 143.408,103.500 143.381 C 103.500 143.257,103.346 143.395,102.577 144.208 M298.575 144.347 C 298.514 144.446,298.228 144.671,297.940 144.846 C 297.652 145.022,297.509 145.166,297.622 145.166 C 297.836 145.167,299.005 144.180,298.802 144.172 C 298.738 144.169,298.636 144.248,298.575 144.347 M111.127 146.618 C 111.334 146.658,111.634 146.656,111.794 146.615 C 111.953 146.573,111.783 146.540,111.417 146.542 C 111.050 146.544,110.920 146.578,111.127 146.618 M353.042 151.417 C 353.044 151.783,353.078 151.914,353.118 151.706 C 353.158 151.499,353.156 151.199,353.115 151.040 C 353.073 150.880,353.040 151.050,353.042 151.417 M50.879 154.500 C 50.879 154.912,50.911 155.081,50.951 154.875 C 50.991 154.669,50.991 154.331,50.951 154.125 C 50.911 153.919,50.879 154.087,50.879 154.500 M353.383 155.667 C 353.383 156.171,353.415 156.377,353.453 156.125 C 353.491 155.873,353.491 155.460,353.453 155.208 C 353.415 154.956,353.383 155.162,353.383 155.667 M353.550 158.667 C 353.550 159.171,353.581 159.377,353.619 159.125 C 353.658 158.873,353.658 158.460,353.619 158.208 C 353.581 157.956,353.550 158.162,353.550 158.667 M50.548 158.917 C 50.549 159.375,50.581 159.543,50.620 159.289 C 50.658 159.036,50.657 158.661,50.617 158.456 C 50.578 158.251,50.546 158.458,50.548 158.917 M50.392 162.500 C 50.392 163.279,50.420 163.598,50.455 163.208 C 50.490 162.819,50.490 162.181,50.455 161.792 C 50.420 161.402,50.392 161.721,50.392 162.500 M353.728 164.750 C 353.728 165.667,353.756 166.020,353.790 165.536 C 353.824 165.052,353.823 164.302,353.789 163.869 C 353.755 163.437,353.727 163.833,353.728 164.750 M353.550 170.833 C 353.550 171.338,353.581 171.544,353.619 171.292 C 353.658 171.040,353.658 170.627,353.619 170.375 C 353.581 170.123,353.550 170.329,353.550 170.833 M50.388 172.250 C 50.389 172.892,50.419 173.134,50.455 172.788 C 50.491 172.442,50.490 171.917,50.454 171.621 C 50.417 171.325,50.387 171.608,50.388 172.250 M353.381 173.583 C 353.382 174.042,353.415 174.209,353.453 173.956 C 353.491 173.703,353.490 173.328,353.451 173.123 C 353.411 172.918,353.380 173.125,353.381 173.583 M50.545 175.167 C 50.545 175.579,50.578 175.748,50.618 175.542 C 50.657 175.335,50.657 174.998,50.618 174.792 C 50.578 174.585,50.545 174.754,50.545 175.167 M353.042 177.583 C 353.044 177.950,353.078 178.080,353.118 177.873 C 353.158 177.666,353.156 177.366,353.115 177.206 C 353.073 177.047,353.040 177.217,353.042 177.583 M50.875 179.083 C 50.877 179.450,50.911 179.580,50.951 179.373 C 50.991 179.166,50.990 178.866,50.948 178.706 C 50.906 178.547,50.874 178.717,50.875 179.083 M244.500 187.385 C 244.500 187.414,244.744 187.658,245.042 187.927 L 245.583 188.417 245.094 187.875 C 244.638 187.370,244.500 187.257,244.500 187.385 M235.690 189.056 C 235.551 189.223,235.564 189.278,235.745 189.278 C 235.878 189.278,236.024 189.178,236.071 189.056 C 236.118 188.933,236.093 188.833,236.015 188.833 C 235.938 188.833,235.791 188.933,235.690 189.056 M246.709 191.917 C 246.711 192.283,246.745 192.414,246.785 192.206 C 246.824 191.999,246.823 191.699,246.781 191.540 C 246.739 191.380,246.707 191.550,246.709 191.917 M134.073 197.208 L 133.583 197.750 134.125 197.260 C 134.423 196.991,134.667 196.748,134.667 196.719 C 134.667 196.590,134.529 196.703,134.073 197.208 M228.893 206.333 C 228.893 207.204,228.922 207.560,228.956 207.125 C 228.990 206.690,228.990 205.977,228.956 205.542 C 228.922 205.106,228.893 205.463,228.893 206.333 M278.725 206.333 C 278.725 207.112,278.754 207.431,278.789 207.042 C 278.824 206.652,278.824 206.015,278.789 205.625 C 278.754 205.235,278.725 205.554,278.725 206.333 M119.705 205.667 C 119.705 205.987,119.740 206.119,119.782 205.958 C 119.823 205.798,119.823 205.535,119.782 205.375 C 119.740 205.215,119.705 205.346,119.705 205.667 M125.667 222.719 C 125.667 222.748,125.910 222.991,126.208 223.260 L 126.750 223.750 126.260 223.208 C 125.804 222.703,125.667 222.590,125.667 222.719 M272.073 223.208 L 271.583 223.750 272.125 223.260 C 272.630 222.804,272.743 222.667,272.615 222.667 C 272.586 222.667,272.342 222.910,272.073 223.208 M162.411 224.208 L 161.417 225.250 162.458 224.255 C 163.031 223.708,163.500 223.239,163.500 223.214 C 163.500 223.090,163.336 223.241,162.411 224.208 M270.906 224.375 L 270.417 224.917 270.958 224.427 C 271.463 223.971,271.577 223.833,271.448 223.833 C 271.419 223.833,271.175 224.077,270.906 224.375 M142.875 231.453 C 143.127 231.491,143.540 231.491,143.792 231.453 C 144.044 231.415,143.837 231.383,143.333 231.383 C 142.829 231.383,142.623 231.415,142.875 231.453 M145.795 231.454 C 146.094 231.491,146.544 231.490,146.795 231.452 C 147.045 231.414,146.800 231.384,146.250 231.385 C 145.700 231.386,145.495 231.417,145.795 231.454 M211.627 253.951 C 211.834 253.991,212.134 253.990,212.294 253.948 C 212.453 253.906,212.283 253.874,211.917 253.875 C 211.550 253.877,211.420 253.911,211.627 253.951 M85.345 256.917 C 85.345 257.008,85.452 257.271,85.583 257.500 C 85.714 257.729,85.822 257.842,85.822 257.750 C 85.822 257.658,85.714 257.396,85.583 257.167 C 85.452 256.938,85.345 256.825,85.345 256.917 M177.889 258.333 C 177.889 259.021,177.919 259.302,177.955 258.958 C 177.991 258.615,177.991 258.052,177.955 257.708 C 177.919 257.365,177.889 257.646,177.889 258.333 M194.214 259.790 C 194.745 259.823,195.570 259.823,196.048 259.789 C 196.526 259.756,196.092 259.729,195.083 259.729 C 194.075 259.729,193.684 259.757,194.214 259.790 M88.381 267.750 C 88.382 268.208,88.415 268.376,88.453 268.123 C 88.491 267.869,88.490 267.494,88.451 267.289 C 88.411 267.084,88.380 267.292,88.381 267.750 M197.708 271.782 C 197.869 271.823,198.131 271.823,198.292 271.782 C 198.452 271.740,198.321 271.705,198.000 271.705 C 197.679 271.705,197.548 271.740,197.708 271.782 M195.044 271.953 C 195.297 271.991,195.672 271.990,195.877 271.951 C 196.082 271.911,195.875 271.880,195.417 271.881 C 194.958 271.882,194.791 271.915,195.044 271.953 M88.712 273.167 C 88.712 273.579,88.745 273.748,88.784 273.542 C 88.824 273.335,88.824 272.998,88.784 272.792 C 88.745 272.585,88.712 272.754,88.712 273.167 M313.545 273.333 C 313.545 273.746,313.578 273.915,313.618 273.708 C 313.657 273.502,313.657 273.165,313.618 272.958 C 313.578 272.752,313.545 272.921,313.545 273.333 M81.580 287.375 L 80.083 288.917 81.625 287.420 C 83.057 286.030,83.243 285.833,83.122 285.833 C 83.097 285.833,82.403 286.527,81.580 287.375 M320.667 287.417 C 321.534 288.287,322.281 289.000,322.327 289.000 C 322.373 289.000,321.701 288.287,320.833 287.417 C 319.966 286.546,319.219 285.833,319.173 285.833 C 319.127 285.833,319.799 286.546,320.667 287.417 M79.240 289.542 L 78.750 290.083 79.292 289.594 C 79.797 289.138,79.910 289.000,79.781 289.000 C 79.752 289.000,79.509 289.244,79.240 289.542 M322.500 289.052 C 322.500 289.081,322.744 289.325,323.042 289.594 L 323.583 290.083 323.094 289.542 C 322.638 289.037,322.500 288.923,322.500 289.052 M323.833 290.219 C 323.833 290.248,324.077 290.491,324.375 290.760 L 324.917 291.250 324.427 290.708 C 323.971 290.203,323.833 290.090,323.833 290.219 M74.161 293.958 L 73.250 294.917 74.208 294.006 C 75.099 293.159,75.243 293.000,75.119 293.000 C 75.093 293.000,74.662 293.431,74.161 293.958 M328.833 294.750 C 329.608 295.529,330.280 296.167,330.326 296.167 C 330.372 296.167,329.775 295.529,329.000 294.750 C 328.225 293.971,327.553 293.333,327.507 293.333 C 327.462 293.333,328.058 293.971,328.833 294.750 M72.242 295.875 L 71.583 296.583 72.292 295.925 C 72.950 295.312,73.077 295.167,72.950 295.167 C 72.923 295.167,72.605 295.485,72.242 295.875 M69.060 303.333 C 69.060 304.204,69.088 304.560,69.123 304.125 C 69.157 303.690,69.157 302.977,69.123 302.542 C 69.088 302.106,69.060 302.462,69.060 303.333 M333.224 303.417 C 333.224 304.150,333.254 304.429,333.289 304.037 C 333.324 303.645,333.324 303.045,333.288 302.704 C 333.252 302.363,333.223 302.683,333.224 303.417 M282.519 305.250 C 282.515 305.342,282.625 305.604,282.763 305.833 C 283.014 306.249,283.014 306.249,282.906 305.854 C 282.825 305.560,282.852 305.492,283.008 305.588 C 283.146 305.673,283.177 305.651,283.098 305.523 C 283.031 305.416,282.914 305.367,282.836 305.415 C 282.759 305.463,282.657 305.408,282.611 305.293 C 282.564 305.178,282.523 305.158,282.519 305.250 M83.042 312.782 C 83.202 312.823,83.465 312.823,83.625 312.782 C 83.785 312.740,83.654 312.705,83.333 312.705 C 83.012 312.705,82.881 312.740,83.042 312.782 M96.042 312.782 C 96.202 312.823,96.465 312.823,96.625 312.782 C 96.785 312.740,96.654 312.705,96.333 312.705 C 96.013 312.705,95.881 312.740,96.042 312.782 M305.708 312.782 C 305.869 312.823,306.131 312.823,306.292 312.782 C 306.452 312.740,306.321 312.705,306.000 312.705 C 305.679 312.705,305.548 312.740,305.708 312.782 M318.708 312.782 C 318.869 312.823,319.131 312.823,319.292 312.782 C 319.452 312.740,319.321 312.705,319.000 312.705 C 318.679 312.705,318.548 312.740,318.708 312.782 M87.958 313.124 C 88.898 313.154,90.435 313.154,91.375 313.124 C 92.315 313.095,91.546 313.070,89.667 313.070 C 87.787 313.070,87.019 313.095,87.958 313.124 M310.958 313.124 C 311.898 313.154,313.435 313.154,314.375 313.124 C 315.315 313.095,314.546 313.070,312.667 313.070 C 310.787 313.070,310.019 313.095,310.958 313.124 M110.912 316.042 L 109.750 317.250 110.958 316.088 C 112.081 315.008,112.243 314.833,112.121 314.833 C 112.095 314.833,111.551 315.377,110.912 316.042 M289.833 315.917 C 290.331 316.421,290.776 316.833,290.822 316.833 C 290.868 316.833,290.498 316.421,290.000 315.917 C 289.502 315.412,289.057 315.000,289.011 315.000 C 288.966 315.000,289.335 315.412,289.833 315.917 M102.958 321.595 C 102.335 321.933,102.373 322.074,103.000 321.750 C 103.275 321.608,103.500 321.456,103.500 321.412 C 103.500 321.305,103.482 321.311,102.958 321.595 M230.349 326.375 C 230.388 326.398,230.720 326.679,231.085 327.000 L 231.750 327.583 231.176 326.958 C 230.860 326.615,230.528 326.333,230.440 326.333 C 230.351 326.333,230.310 326.352,230.349 326.375 M91.083 328.265 L 90.583 328.694 91.125 328.336 C 91.423 328.139,91.667 327.945,91.667 327.905 C 91.667 327.781,91.596 327.824,91.083 328.265 M233.167 328.917 C 233.478 329.237,233.770 329.500,233.815 329.500 C 233.861 329.500,233.644 329.237,233.333 328.917 C 233.022 328.596,232.730 328.333,232.685 328.333 C 232.639 328.333,232.856 328.596,233.167 328.917 M167.240 329.375 L 166.750 329.917 167.292 329.427 C 167.590 329.158,167.833 328.914,167.833 328.885 C 167.833 328.757,167.696 328.870,167.240 329.375 M234.167 329.719 C 234.167 329.748,234.410 329.991,234.708 330.260 L 235.250 330.750 234.760 330.208 C 234.304 329.703,234.167 329.590,234.167 329.719 M312.667 331.000 C 312.862 331.275,313.060 331.500,313.106 331.500 C 313.152 331.500,313.029 331.275,312.833 331.000 C 312.638 330.725,312.440 330.500,312.394 330.500 C 312.348 330.500,312.471 330.725,312.667 331.000 M314.039 334.333 C 314.039 334.654,314.073 334.785,314.115 334.625 C 314.157 334.465,314.157 334.202,314.115 334.042 C 314.073 333.881,314.039 334.012,314.039 334.333 M239.667 334.061 C 239.667 334.106,239.892 334.304,240.167 334.500 C 240.442 334.696,240.667 334.819,240.667 334.773 C 240.667 334.727,240.442 334.529,240.167 334.333 C 239.892 334.138,239.667 334.015,239.667 334.061 M86.879 334.833 C 86.879 335.246,86.911 335.415,86.951 335.208 C 86.991 335.002,86.991 334.665,86.951 334.458 C 86.911 334.252,86.879 334.421,86.879 334.833 M88.667 338.250 C 89.165 338.754,89.609 339.167,89.655 339.167 C 89.701 339.167,89.331 338.754,88.833 338.250 C 88.335 337.746,87.891 337.333,87.845 337.333 C 87.799 337.333,88.169 337.746,88.667 338.250 M312.078 338.375 L 311.083 339.417 312.125 338.422 C 313.093 337.498,313.243 337.333,313.120 337.333 C 313.094 337.333,312.625 337.802,312.078 338.375 M306.958 341.929 C 306.335 342.267,306.373 342.407,307.000 342.083 C 307.275 341.941,307.500 341.789,307.500 341.746 C 307.500 341.638,307.482 341.645,306.958 341.929 M94.167 342.075 C 94.167 342.121,94.392 342.274,94.667 342.417 C 94.942 342.559,95.167 342.638,95.167 342.592 C 95.167 342.546,94.942 342.392,94.667 342.250 C 94.392 342.108,94.167 342.029,94.167 342.075 M114.127 347.951 C 114.334 347.991,114.634 347.990,114.794 347.948 C 114.953 347.906,114.783 347.874,114.417 347.875 C 114.050 347.877,113.920 347.911,114.127 347.951 M126.460 347.951 C 126.668 347.991,126.968 347.990,127.127 347.948 C 127.286 347.906,127.117 347.874,126.750 347.875 C 126.383 347.877,126.253 347.911,126.460 347.951 M273.960 347.951 C 274.168 347.991,274.468 347.990,274.627 347.948 C 274.786 347.906,274.617 347.874,274.250 347.875 C 273.883 347.877,273.753 347.911,273.960 347.951 M286.294 347.951 C 286.501 347.991,286.801 347.990,286.960 347.948 C 287.120 347.906,286.950 347.874,286.583 347.875 C 286.217 347.877,286.086 347.911,286.294 347.951 M119.880 348.289 C 120.318 348.324,120.993 348.323,121.380 348.288 C 121.767 348.254,121.408 348.225,120.583 348.226 C 119.758 348.226,119.442 348.255,119.880 348.289 M279.713 348.289 C 280.152 348.324,280.827 348.323,281.213 348.288 C 281.600 348.254,281.242 348.225,280.417 348.226 C 279.592 348.226,279.275 348.255,279.713 348.289 M216.913 356.875 L 215.417 358.417 216.958 356.920 C 218.390 355.530,218.576 355.333,218.455 355.333 C 218.430 355.333,217.736 356.027,216.913 356.875 M202.375 363.782 C 202.535 363.823,202.798 363.823,202.958 363.782 C 203.119 363.740,202.987 363.705,202.667 363.705 C 202.346 363.705,202.215 363.740,202.375 363.782 M196.794 363.951 C 197.001 363.991,197.301 363.990,197.460 363.948 C 197.620 363.906,197.450 363.874,197.083 363.875 C 196.717 363.877,196.586 363.911,196.794 363.951 M200.460 363.951 C 200.668 363.991,200.968 363.990,201.127 363.948 C 201.286 363.906,201.117 363.874,200.750 363.875 C 200.383 363.877,200.253 363.911,200.460 363.951 " stroke="none" fill="#762785" fill-rule="evenodd"></path></g></svg>